<mxfile host="app.diagrams.net" agent="Mozilla/5.0 (Macintosh; Intel Mac OS X 10_15_7) AppleWebKit/537.36 (KHTML, like Gecko) Chrome/131.0.0.0 Safari/537.36" version="26.0.6">
  <diagram name="第 1 页" id="o1OvSWHxyMNJmI6eon0z">
    <mxGraphModel dx="1370" dy="819" grid="1" gridSize="10" guides="1" tooltips="1" connect="1" arrows="1" fold="1" page="1" pageScale="1" pageWidth="827" pageHeight="1169" math="0" shadow="0">
      <root>
        <mxCell id="0" />
        <mxCell id="1" parent="0" />
        <mxCell id="_T2d7v1TlRZ3oPR-oumQ-1" value="&lt;span style=&quot;background-color: light-dark(#ffffff, var(--ge-dark-color, #121212));&quot;&gt;&lt;font face=&quot;Comic Sans MS&quot; style=&quot;color: rgb(241, 156, 153); font-size: 22px;&quot;&gt;api&lt;/font&gt;&lt;/span&gt;" style="rounded=1;whiteSpace=wrap;html=1;labelBorderColor=none;sketch=1;curveFitting=1;jiggle=2;strokeColor=#FFB570;" parent="1" vertex="1">
          <mxGeometry x="190" y="210" width="420" height="60" as="geometry" />
        </mxCell>
        <mxCell id="2wBDQAyF53dLjYr8ziSA-1" value="&lt;font face=&quot;Comic Sans MS&quot; style=&quot;color: rgb(126, 166, 224); font-size: 22px;&quot;&gt;common&lt;/font&gt;" style="rounded=0;whiteSpace=wrap;html=1;sketch=1;hachureGap=4;jiggle=2;curveFitting=1;fontFamily=Architects Daughter;fontSource=https%3A%2F%2Ffonts.googleapis.com%2Fcss%3Ffamily%3DArchitects%2BDaughter;strokeColor=#7EA6E0;" vertex="1" parent="1">
          <mxGeometry x="190" y="290" width="210" height="90" as="geometry" />
        </mxCell>
        <mxCell id="2wBDQAyF53dLjYr8ziSA-2" value="&lt;font face=&quot;Comic Sans MS&quot; style=&quot;font-size: 22px;&quot;&gt;OS&lt;/font&gt;" style="rounded=0;whiteSpace=wrap;html=1;sketch=1;hachureGap=4;jiggle=2;curveFitting=1;fontFamily=Architects Daughter;fontSource=https%3A%2F%2Ffonts.googleapis.com%2Fcss%3Ffamily%3DArchitects%2BDaughter;" vertex="1" parent="1">
          <mxGeometry x="190" y="660" width="430" height="90" as="geometry" />
        </mxCell>
        <mxCell id="2wBDQAyF53dLjYr8ziSA-3" value="&lt;font style=&quot;font-size: 22px; color: rgb(169, 196, 235);&quot; face=&quot;Comic Sans MS&quot;&gt;Pager&lt;/font&gt;" style="rounded=0;whiteSpace=wrap;html=1;sketch=1;hachureGap=4;jiggle=2;curveFitting=1;fontFamily=Architects Daughter;fontSource=https%3A%2F%2Ffonts.googleapis.com%2Fcss%3Ffamily%3DArchitects%2BDaughter;strokeColor=#FF9999;" vertex="1" parent="1">
          <mxGeometry x="190" y="540" width="430" height="90" as="geometry" />
        </mxCell>
        <mxCell id="2wBDQAyF53dLjYr8ziSA-4" value="&lt;font style=&quot;font-size: 22px; color: rgb(128, 255, 0);&quot;&gt;util&lt;/font&gt;" style="rounded=0;whiteSpace=wrap;html=1;sketch=1;hachureGap=4;jiggle=2;curveFitting=1;fontFamily=Architects Daughter;fontSource=https%3A%2F%2Ffonts.googleapis.com%2Fcss%3Ffamily%3DArchitects%2BDaughter;strokeColor=#FFCCCC;" vertex="1" parent="1">
          <mxGeometry x="430" y="290" width="180" height="90" as="geometry" />
        </mxCell>
        <mxCell id="2wBDQAyF53dLjYr8ziSA-5" value="&lt;font face=&quot;Comic Sans MS&quot; style=&quot;font-size: 22px; color: rgb(179, 255, 102);&quot;&gt;index&lt;/font&gt;" style="rounded=0;whiteSpace=wrap;html=1;sketch=1;hachureGap=4;jiggle=2;curveFitting=1;fontFamily=Architects Daughter;fontSource=https%3A%2F%2Ffonts.googleapis.com%2Fcss%3Ffamily%3DArchitects%2BDaughter;strokeColor=#B9E0A5;" vertex="1" parent="1">
          <mxGeometry x="430" y="410" width="180" height="85" as="geometry" />
        </mxCell>
        <mxCell id="2wBDQAyF53dLjYr8ziSA-6" value="&lt;font face=&quot;Comic Sans MS&quot; style=&quot;font-size: 22px; color: rgb(179, 255, 102);&quot;&gt;table&lt;/font&gt;" style="rounded=0;whiteSpace=wrap;html=1;sketch=1;hachureGap=4;jiggle=2;curveFitting=1;fontFamily=Architects Daughter;fontSource=https%3A%2F%2Ffonts.googleapis.com%2Fcss%3Ffamily%3DArchitects%2BDaughter;strokeColor=#B9E0A5;" vertex="1" parent="1">
          <mxGeometry x="190" y="410" width="210" height="85" as="geometry" />
        </mxCell>
      </root>
    </mxGraphModel>
  </diagram>
</mxfile>
